{"title":"Balto - OST - James Horner [Eac Flac Cue] Soundtrack [TNT Villag","uid":6064886,"size":271330593,"categoryP":"audio","categoryS":"flac","magnet":"?xt=urn:btih:c18e9441b91b1b8b8b3fea4b4499cd67b1c3811d&amp;dn=Balto+-+OST+-+James+Horner+%5BEac+Flac+Cue%5D+Soundtrack+%5BTNT+Villag&amp;tr=udp%3A%2F%2Ftracker.openbittorrent.com%3A80&amp;tr=udp%3A%2F%2Fopen.demonii.com%3A1337&amp;tr=udp%3A%2F%2Ftracker.coppersurfer.tk%3A6969&amp;tr=udp%3A%2F%2Fexodus.desync.com%3A6969","seeders":3,"leechers":0,"uploader":"Cer8one","files":9,"time":1293306217,"description":"Titolo Album: \t  \tBalto \t \nMusiche di: \t  \tJames Horner\nInterprete: \t  \tSteve Winwood\nAnno: \t  \t1995 \t \nEdizione: \t  \tMca \t \nDistribuzione: \t  \tUni\nUPC:  00881113882\nLabel number: MCAD 11388\nDurata: 53m31s\nAudio Codec: Flac\nTipo Rip: image + Cue\nFull Of Artwork\n\n\n:::Tracklist:::\n\n1. Reach For The Light (Theme From Balto) (4:24)\n2. Main Title (Balto's Story Unfolds) (4:40)\n3. The Dogsled Race (1:41)\n4. Rosy Goes To The Doctor (4:05)\n5. Boris And Balto (1:29)\n6. The Journey Begins (5:06)\n7. Grizzly Bear (5:23)\n8. Jenna (Telegraphing The News) (2:22)\n9. Steele's Treachery (4:38)\n10. The Epidemic's Toll (3:29)\n11. Heritage Of The Wolf (5:54)\n12. Balto Brings The Medicine! (4:53)\n13. Reach For The Light (Theme From Balto, Long Version) (5:27)[/b]\n\n\n:::Eac Log:::\n\nExact Audio Copy V0.99 prebeta 3 from 28. July 2007\n\nArchivo Log de extracciones desde 11. Diciembre 2007, 23:41\n\nJames Horner / BALTO\n\nUsar unidad : HL-DT-STDVD-RAM GSA-H20L Adapter: 1 ID: 1\n\nModo de Lectura : Seguro\nUtilizar Corriente Exacta : SÃƒÂ­\nDescartar Audio cachÃƒÂ© : SÃƒÂ­\nUtilizar los punteros C2 : No\n\nCorrecciÃƒÂ³n de Desplazamiento de Lectura : 102\nSobreleer tanto en Lead-In como en Lead-Out : No\nRellenar las muestras faltantes con silencios : SÃƒÂ­\nEliminar silencios inicial y final : No\nSe han usado muestras nulas en los cÃƒÂ¡lculos CRC : SÃƒÂ­\nInterfaz usada : Interfaz ASPI externo instalado\n\nFormato de Salida utilizado : Rutinas WAV Internas\nFormato de Muestreo : 44.100 Hz; 16 Bit; EstÃƒÂ©reo\n\n\nTOC del CD extraido\n\nPista | Inicio | DuraciÃƒÂ³n | Sector inicial | Sector final\n-------------------------------------------------------------\n1 | 0:00.00 | 4:24.69 | 0 | 19868\n2 | 4:24.69 | 4:40.51 | 19869 | 40919\n3 | 9:05.45 | 1:41.17 | 40920 | 48511\n4 | 10:46.62 | 4:05.45 | 48512 | 66931\n5 | 14:52.32 | 1:29.65 | 66932 | 73671\n6 | 16:22.22 | 5:06.63 | 73672 | 96684\n7 | 21:29.10 | 5:23.35 | 96685 | 120944\n8 | 26:52.45 | 2:22.40 | 120945 | 131634\n9 | 29:15.10 | 4:38.52 | 131635 | 152536\n10 | 33:53.62 | 3:29.45 | 152537 | 168256\n11 | 37:23.32 | 5:54.35 | 168257 | 194841\n12 | 43:17.67 | 4:53.35 | 194842 | 216851\n13 | 48:11.27 | 5:27.03 | 216852 | 241379\n\n\nGama de estados y errores\n\nSeleccionar gama\n\nNombre de Archivo E:\\BALTO_James Horner\\James Horner - BALTO.wav\n\nNivel Pico 95.3 %\nGama de Calidad 100.0 %\nCopiar CRC 4A81C5A9\nCopia OK\n\nSin Errores\n\nFinal del Informe\n","torrent":{"xt":"urn:btih:c18e9441b91b1b8b8b3fea4b4499cd67b1c3811d","amp;dn":"Balto+-+OST+-+James+Horner+%5BEac+Flac+Cue%5D+Soundtrack+%5BTNT+Villag","amp;tr":["udp%3A%2F%2Ftracker.openbittorrent.com%3A80","udp%3A%2F%2Fopen.demonii.com%3A1337","udp%3A%2F%2Ftracker.coppersurfer.tk%3A6969","udp%3A%2F%2Fexodus.desync.com%3A6969"],"infoHash":"c18e9441b91b1b8b8b3fea4b4499cd67b1c3811d","infoHashBuffer":{"type":"Buffer","data":[193,142,148,65,185,27,27,139,139,63,234,75,68,153,205,103,177,195,129,29]},"announce":[],"urlList":[]}}